<svg width="27" height="18" viewBox="0 0 27 18" fill="none" xmlns="http://www.w3.org/2000/svg">
<path d="M26.0476 0C25.3735 2.84082 24.6995 5.92653 24.0254 9.25715C23.3513 12.5388 22.8458 15.4531 22.5087 18H14.7087L14.2032 17.1918C14.8772 14.5959 15.7921 11.7551 16.9476 8.66939C18.1032 5.53469 19.2828 2.6449 20.4865 0H26.0476ZM11.8198 0C11.0976 2.84082 10.3995 5.92653 9.72539 9.25715C9.05131 12.5388 8.54576 15.4531 8.20872 18H0.480941L0.0476074 17.1918C0.721682 14.5959 1.61242 11.7551 2.71983 8.66939C3.87539 5.53469 5.05502 2.6449 6.25872 0H11.8198Z" fill="#171D1C"/>
</svg>
